<?xml version="1.0" standalone="no"?>
<!DOCTYPE svg PUBLIC "-//W3C//DTD SVG 20010904//EN"
 "http://www.w3.org/TR/2001/REC-SVG-20010904/DTD/svg10.dtd">
<svg version="1.0" xmlns="http://www.w3.org/2000/svg"
 width="260.000000pt" height="260.000000pt" viewBox="0 0 260.000000 260.000000"
 preserveAspectRatio="xMidYMid meet">
<metadata>
Created by potrace 1.14, written by Peter Selinger 2001-2017
</metadata>
<g transform="translate(0.000000,260.000000) scale(0.100000,-0.100000)"
fill="#000000" stroke="none">
<path d="M0 1300 l0 -1300 1300 0 1300 0 0 1300 0 1300 -1300 0 -1300 0 0
-1300z m1870 482 c143 -56 203 -212 130 -338 -18 -33 -46 -62 -74 -80 -25 -16
-45 -32 -46 -36 0 -3 13 -11 30 -16 87 -31 149 -116 157 -216 13 -158 -77
-264 -256 -302 -67 -14 -276 -19 -343 -8 l-38 7 0 498 0 498 38 6 c20 4 44 8
52 10 8 2 78 3 155 1 115 -2 150 -6 195 -24z m-899 -67 c175 -512 309 -909
309 -916 0 -5 -30 -9 -67 -9 l-68 0 -55 160 -55 160 -177 0 -177 0 -52 -160
-53 -160 -68 0 c-37 0 -68 1 -68 3 0 2 184 545 294 866 25 74 46 136 46 138 0
2 37 3 82 1 l81 -3 28 -80z"/>
<path d="M1583 1704 c-23 -5 -23 -7 -23 -171 l0 -165 98 4 c127 5 186 31 220
98 27 55 28 92 1 146 -28 60 -84 85 -192 89 -45 2 -92 1 -104 -1z"/>
<path d="M1560 1082 l0 -192 26 -6 c14 -4 62 -4 106 -1 110 7 184 44 216 107
12 24 22 63 22 85 0 22 -10 61 -22 85 -19 36 -34 51 -81 74 -51 25 -73 30
-163 34 l-104 5 0 -191z"/>
<path d="M850 1656 c0 -12 -115 -376 -137 -433 -4 -10 29 -13 145 -13 l150 0
-69 208 c-38 114 -69 215 -69 224 0 9 -4 20 -10 23 -5 3 -10 -1 -10 -9z"/>
</g>
</svg>
